<?xml version="1.0" encoding="UTF-8"?>
<svg id="Layer_1" data-name="Layer 1" xmlns="http://www.w3.org/2000/svg" viewBox="0 0 730 208.69">
  <defs>
    <style>
      .cls-1 {
        fill: #e2001a;
      }
    </style>
  </defs>
  <g>
    <path d="m126.91,69.5v-.81c0-7.07-5.86-12.93-12.93-12.93h-57.38c-7.07,0-12.93,5.86-12.93,12.93v.81c0,7.07,5.86,12.93,12.93,12.93h50.91c13.13,0,24.85,5.66,32.93,14.55.61.61,1.01,1.21,1.62,1.82,6.26,7.68,10.1,17.58,10.1,28.28,0,24.65-20,44.65-44.65,44.65h-44.24c-24.65,0-44.65-20-44.65-44.65h25.25c0,10.71,8.69,19.39,19.39,19.39h44.24c10.71,0,19.6-8.69,19.6-19.39s-8.89-19.39-19.6-19.39h-50.91c-10.3,0-19.6-4.04-26.47-10.71-1.82-1.82-3.43-3.84-4.85-6.06-4.24-6.06-6.67-13.54-6.67-21.62v-.81c0-21.01,16.97-38.18,37.98-38.18h57.38c21.01,0,38.18,17.17,38.18,38.18v.81l-25.25.2Z"/>
    <path d="m313.59,126.67c0,24.85-20.2,45.05-45.05,45.05h-96.37V30.3h89.09c21.01,0,38.18,17.17,38.18,38.18,0,7.68-2.22,14.75-6.06,20.61,12.12,8.08,20.2,21.82,20.2,37.58Zm-116.17-45.25h64.04c7.07,0,12.93-5.86,12.93-12.93s-5.86-12.93-12.93-12.93h-64.04v25.86Zm71.11,64.85c10.91,0,19.8-8.89,19.8-19.8s-8.89-19.8-19.8-19.8h-71.11v39.8h71.11v-.2Z"/>
    <path d="m458.24,30.51v25.25h-57.98v116.17h-25.25V55.76h-57.98v-25.25h141.22Z"/>
    <path d="m563.29,171.72h-28.28l-12.93-25.25-30.91-60.61-30.91,60.61-12.93,25.25h-28.28l12.93-25.25,59.19-116.17,59.19,116.17,12.93,25.25Z"/>
    <path d="m716.62,126.67c0,24.85-20.2,45.05-45.05,45.05h-96.37V30.3h89.09c21.01,0,38.18,17.17,38.18,38.18,0,7.68-2.22,14.75-6.06,20.61,12.12,8.08,20.2,21.82,20.2,37.58Zm-116.17-45.25h64.04c7.07,0,12.93-5.86,12.93-12.93s-5.86-12.93-12.93-12.93h-64.04v25.86Zm71.11,64.85c10.91,0,19.8-8.89,19.8-19.8s-8.89-19.8-19.8-19.8h-71.11v39.8h71.11v-.2Z"/>
  </g>
  <rect class="cls-1" x="58.46" y="191.33" width="606.08" height="8.08"/>
</svg>